<svg width="16" height="16" viewBox="0 0 16 16" fill="none" xmlns="http://www.w3.org/2000/svg">
<path d="M3.2 5.6C3.2 4.27452 4.27452 3.2 5.6 3.2H13.6C14.9255 3.2 16 4.27452 16 5.6V13.6C16 14.9255 14.9255 16 13.6 16H5.6C4.27452 16 3.2 14.9255 3.2 13.6V5.6Z" fill="#F25F4C"/>
<path d="M1.6 4C1.6 2.67452 2.67452 1.6 4 1.6H12C13.3255 1.6 14.4 2.67452 14.4 4V12C14.4 13.3255 13.3255 14.4 12 14.4H4C2.67452 14.4 1.6 13.3255 1.6 12V4Z" fill="#FF8906"/>
<path d="M0 2.4C0 1.07452 1.07452 0 2.4 0H10.4C11.7255 0 12.8 1.07452 12.8 2.4V10.4C12.8 11.7255 11.7255 12.8 10.4 12.8H2.4C1.07452 12.8 0 11.7255 0 10.4V2.4Z" fill="#E53170"/>
</svg>
