<svg width="192" height="192" viewBox="0 0 192 192" fill="none" xmlns="http://www.w3.org/2000/svg">
<path d="M38.4 67.2C38.4 51.2942 51.2942 38.4 67.2 38.4H163.2C179.106 38.4 192 51.2942 192 67.2V163.2C192 179.106 179.106 192 163.2 192H67.2C51.2942 192 38.4 179.106 38.4 163.2V67.2Z" fill="#F25F4C"/>
<path d="M19.2 48C19.2 32.0942 32.0942 19.2 48 19.2H144C159.906 19.2 172.8 32.0942 172.8 48V144C172.8 159.906 159.906 172.8 144 172.8H48C32.0942 172.8 19.2 159.906 19.2 144V48Z" fill="#FF8906"/>
<path d="M0 28.8C0 12.8942 12.8942 0 28.8 0H124.8C140.706 0 153.6 12.8942 153.6 28.8V124.8C153.6 140.706 140.706 153.6 124.8 153.6H28.8C12.8942 153.6 0 140.706 0 124.8V28.8Z" fill="#E53170"/>
</svg>
