<svg width="32" height="32" viewBox="0 0 32 32" fill="none" xmlns="http://www.w3.org/2000/svg">
<path d="M6.4 11.2C6.4 8.54903 8.54903 6.4 11.2 6.4H27.2C29.851 6.4 32 8.54903 32 11.2V27.2C32 29.851 29.851 32 27.2 32H11.2C8.54903 32 6.4 29.851 6.4 27.2V11.2Z" fill="#F25F4C"/>
<path d="M3.2 8C3.2 5.34903 5.34903 3.2 8 3.2H24C26.651 3.2 28.8 5.34903 28.8 8V24C28.8 26.651 26.651 28.8 24 28.8H8C5.34903 28.8 3.2 26.651 3.2 24V8Z" fill="#FF8906"/>
<path d="M0 4.8C0 2.14903 2.14903 0 4.8 0H20.8C23.451 0 25.6 2.14903 25.6 4.8V20.8C25.6 23.451 23.451 25.6 20.8 25.6H4.8C2.14903 25.6 0 23.451 0 20.8V4.8Z" fill="#E53170"/>
</svg>
